<svg width="34" height="20" viewBox="0 0 34 20" fill="none" xmlns="http://www.w3.org/2000/svg">
<path d="M26.5503 2.71659L27.2837 1.98325C28.1503 1.11659 29.6587 1.11659 30.5253 1.98325L31.117 2.57492C31.5503 3.00825 31.792 3.58325 31.792 4.19159C31.792 4.79992 31.5503 5.38325 31.117 5.80825L30.3837 6.54159L26.5503 2.70825V2.71659ZM25.667 3.59992L18.0753 11.1916C17.8337 11.4333 17.6837 11.7499 17.6587 12.0916L17.4337 14.5333C17.4087 14.8416 17.517 15.1416 17.7337 15.3666C17.9337 15.5666 18.192 15.6749 18.467 15.6749H18.5587L21.0003 15.4499C21.342 15.4166 21.6587 15.2666 21.9003 15.0249L29.492 7.43325L25.6587 3.59992H25.667ZM33.4587 18.3333C33.4587 17.9916 33.1753 17.7083 32.8337 17.7083H16.167C15.8253 17.7083 15.542 17.9916 15.542 18.3333C15.542 18.6749 15.8253 18.9583 16.167 18.9583H32.8337C33.1753 18.9583 33.4587 18.6749 33.4587 18.3333Z" fill="#F2B50F"/>
<rect x="9" y="2" width="14" height="2" rx="1" transform="rotate(90 9 2)" fill="#F2B50F"/>
<rect x="15" y="10" width="14" height="2" rx="1" transform="rotate(-180 15 10)" fill="#F2B50F"/>
</svg>
