<svg width="18" height="18" viewBox="0 0 18 18" fill="none" xmlns="http://www.w3.org/2000/svg">
<g clip-path="url(#clip0_155_734)">
<path d="M15.364 2.6358C14.1053 1.37711 12.5017 0.51993 10.7558 0.172657C9.00999 -0.174617 7.20038 0.00361328 5.55584 0.684808C3.91129 1.366 2.50568 2.51957 1.51675 3.99962C0.527817 5.47968 -1.54147e-05 7.21975 3.3763e-10 8.9998C3.3763e-10 13.9706 4.0296 17.9998 9 17.9998C10.78 17.9998 12.5201 17.472 14.0002 16.483C15.4802 15.4941 16.6338 14.0885 17.315 12.444C17.9962 10.7994 18.1744 8.9898 17.8271 7.24396C17.4799 5.49812 16.6227 3.89447 15.364 2.6358ZM8.3108 5.289C8.31091 5.10624 8.38355 4.931 8.51278 4.80178C8.642 4.67255 8.81724 4.5999 9 4.5998C9.18279 4.5998 9.35809 4.67241 9.48734 4.80166C9.61659 4.93091 9.6892 5.10621 9.6892 5.289V10.219C9.68925 10.3095 9.67146 10.3992 9.63684 10.4828C9.60223 10.5664 9.55146 10.6424 9.48745 10.7065C9.42345 10.7705 9.34745 10.8212 9.26381 10.8558C9.18017 10.8905 9.09052 10.9082 9 10.9082C8.81721 10.9082 8.64191 10.8356 8.51266 10.7063C8.38341 10.5771 8.3108 10.4018 8.3108 10.219V5.289ZM9.8484 12.5518C9.84829 12.7767 9.75886 12.9924 9.59977 13.1514C9.44067 13.3105 9.22494 13.3998 9 13.3998C8.77509 13.3998 8.5594 13.3105 8.40037 13.1514C8.24134 12.9924 8.152 12.7767 8.152 12.5518C8.152 12.3269 8.24133 12.1111 8.40035 11.952C8.55937 11.7929 8.77506 11.7035 9 11.7034C9.22498 11.7035 9.44071 11.7929 9.59979 11.952C9.75887 12.1111 9.84829 12.3268 9.8484 12.5518Z" fill="#F2B50F"/>
</g>
<defs>
<clipPath id="clip0_155_734">
<rect width="18" height="18" fill="white"/>
</clipPath>
</defs>
</svg>
