<svg width="16" height="17" viewBox="0 0 16 17" fill="none" xmlns="http://www.w3.org/2000/svg">
<path d="M14.404 4.13039H10.9581V2.74183C10.9581 2.08067 10.4202 1.54281 9.759 1.54281H6.24074C5.57958 1.54281 5.04169 2.08067 5.04169 2.74183V4.13039H1.59573C0.717892 4.13039 0.00369712 4.84459 0.00369712 5.72242C0.00369712 6.5198 -0.0779641 7.2359 0.526292 8.04121C0.868171 8.49684 1.33799 8.82187 1.88492 8.9811L7.19605 10.5275C7.72185 10.6805 8.27774 10.6806 8.80363 10.5275L14.1148 8.9811C14.6617 8.82184 15.1315 8.49684 15.4734 8.04121C16.0804 7.23228 15.996 6.50882 15.996 5.72242C15.996 4.84459 15.2819 4.13039 14.404 4.13039ZM6.0573 2.74183C6.0573 2.64068 6.1396 2.55842 6.24074 2.55842H9.759C9.86015 2.55842 9.94245 2.64071 9.94245 2.74183V4.13039H6.0573V2.74183Z"/>
<path d="M14.3989 9.9562C8.67019 11.6242 8.74436 11.6579 8.00005 11.6579C7.26107 11.6579 7.43639 11.6552 1.60124 9.95624C0.986 9.77708 0.441126 9.44688 0.00390625 8.99166V13.8652C0.00390625 14.743 0.71807 15.4572 1.59594 15.4572H14.4042C15.282 15.4572 15.9962 14.743 15.9962 13.8652V8.99166C15.559 9.44684 15.0141 9.77708 14.3989 9.9562Z"/>
</svg>
