<svg width="20" height="20" viewBox="0 0 20 20" fill="none" xmlns="http://www.w3.org/2000/svg">
<g clip-path="url(#clip0_153_196)">
<path d="M18.332 10.8334C18.111 10.8334 17.8991 10.9212 17.7428 11.0775C17.5865 11.2337 17.4987 11.4457 17.4987 11.6667V15.1775C17.498 15.7933 17.2531 16.3837 16.8177 16.8191C16.3823 17.2545 15.792 17.4994 15.1762 17.5H4.8212C4.20544 17.4994 3.61508 17.2545 3.17967 16.8191C2.74426 16.3837 2.49936 15.7933 2.4987 15.1775V11.6667C2.4987 11.4457 2.4109 11.2337 2.25462 11.0775C2.09834 10.9212 1.88638 10.8334 1.66536 10.8334C1.44435 10.8334 1.23239 10.9212 1.07611 11.0775C0.919829 11.2337 0.832031 11.4457 0.832031 11.6667V15.1775C0.833134 16.2352 1.25377 17.2492 2.00165 17.9971C2.74952 18.745 3.76354 19.1656 4.8212 19.1667H15.1762C16.2339 19.1656 17.2479 18.745 17.9957 17.9971C18.7436 17.2492 19.1643 16.2352 19.1654 15.1775V11.6667C19.1654 11.4457 19.0776 11.2337 18.9213 11.0775C18.765 10.9212 18.553 10.8334 18.332 10.8334Z" fill="#F2B50F"/>
<path d="M5.58999 7.25582L9.16749 3.67832V14.1667C9.16749 14.3877 9.25529 14.5996 9.41157 14.7559C9.56785 14.9122 9.77981 15 10.0008 15C10.2218 15 10.4338 14.9122 10.5901 14.7559C10.7464 14.5996 10.8342 14.3877 10.8342 14.1667V3.67832L14.4117 7.25582C14.5688 7.40762 14.7793 7.49161 14.9978 7.48971C15.2163 7.48781 15.4253 7.40017 15.5798 7.24567C15.7343 7.09116 15.822 6.88215 15.8239 6.66365C15.8258 6.44516 15.7418 6.23465 15.59 6.07748L10.59 1.07748C10.4337 0.921259 10.2218 0.833496 10.0008 0.833496C9.77986 0.833496 9.56793 0.921259 9.41166 1.07748L4.41166 6.07748C4.25986 6.23465 4.17587 6.44516 4.17777 6.66365C4.17966 6.88215 4.26731 7.09116 4.42181 7.24567C4.57632 7.40017 4.78533 7.48781 5.00383 7.48971C5.22232 7.49161 5.43283 7.40762 5.58999 7.25582Z" fill="#F2B50F"/>
</g>
<defs>
<clipPath id="clip0_153_196">
<rect width="20" height="20" fill="white"/>
</clipPath>
</defs>
</svg>
