<svg width="13" height="17" viewBox="0 0 13 17" fill="none" xmlns="http://www.w3.org/2000/svg">
<g clip-path="url(#clip0_277_533)">
<path d="M5.8436 12.4328C6.11692 12.7062 6.56014 12.7063 6.83355 12.433L11.2891 7.97902C11.5625 7.7057 11.5626 7.26248 11.2893 6.98907C11.016 6.71565 10.5727 6.71557 10.2993 6.98889L6.33884 10.948L2.37973 6.9875C2.10642 6.71409 1.6632 6.71401 1.38978 6.98733C1.11637 7.26065 1.11629 7.70387 1.38961 7.97728L5.8436 12.4328ZM5.64049 1.49979L5.63866 11.9378L7.03866 11.9381L7.04049 1.50004L5.64049 1.49979Z" fill="#F2B50F"/>
<path d="M11.2305 13.3857V15.5002H1.23047V13.5002" stroke="#F2B50F" stroke-width="1.4" stroke-linecap="round" stroke-linejoin="round"/>
</g>
<defs>
<clipPath id="clip0_277_533">
<rect width="12" height="16" fill="white" transform="translate(0.121094 0.5)"/>
</clipPath>
</defs>
</svg>
