<svg width="20" height="20" viewBox="0 0 20 20" fill="none" xmlns="http://www.w3.org/2000/svg">
<path d="M12.0503 2.71668L12.7837 1.98334C13.6503 1.11668 15.1587 1.11668 16.0253 1.98334L16.617 2.57501C17.0503 3.00834 17.292 3.58334 17.292 4.19168C17.292 4.80001 17.0503 5.38334 16.617 5.80834L15.8837 6.54168L12.0503 2.70834V2.71668ZM11.167 3.60001L3.57533 11.1917C3.33366 11.4333 3.18366 11.75 3.15866 12.0917L2.93366 14.5333C2.90866 14.8417 3.01699 15.1417 3.23366 15.3667C3.43366 15.5667 3.69199 15.675 3.96699 15.675H4.05866L6.50033 15.45C6.84199 15.4167 7.15866 15.2667 7.40033 15.025L14.992 7.43334L11.1587 3.60001H11.167ZM18.9587 18.3333C18.9587 17.9917 18.6753 17.7083 18.3337 17.7083H1.66699C1.32533 17.7083 1.04199 17.9917 1.04199 18.3333C1.04199 18.675 1.32533 18.9583 1.66699 18.9583H18.3337C18.6753 18.9583 18.9587 18.675 18.9587 18.3333Z" fill="#F2B50F"/>
</svg>
