<svg width="12" height="15" viewBox="0 0 12 15" fill="none" xmlns="http://www.w3.org/2000/svg">
<path d="M7.60547 0.499954H7.82547C7.94939 0.500278 8.06877 0.546605 8.16047 0.629954L10.9405 3.12995C10.9923 3.1767 11.0337 3.23377 11.0621 3.29749C11.0905 3.36122 11.1053 3.43018 11.1055 3.49995H8.10547C7.97286 3.49995 7.84568 3.44728 7.75191 3.35351C7.65815 3.25974 7.60547 3.13256 7.60547 2.99995V0.499954ZM11.1055 4.49995V13C11.0885 13.4116 10.91 13.7999 10.6086 14.0807C10.3072 14.3615 9.90723 14.5121 9.49547 14.5H1.71547C1.3037 14.5121 0.903736 14.3615 0.602333 14.0807C0.300929 13.7999 0.122398 13.4116 0.105469 13V1.99995C0.122398 1.58836 0.300929 1.20003 0.602333 0.919221C0.903736 0.63841 1.3037 0.487761 1.71547 0.499954H6.60547V2.99995C6.60547 3.39778 6.7635 3.77931 7.04481 4.06061C7.32611 4.34192 7.70764 4.49995 8.10547 4.49995H11.1055ZM7.46047 7.14495L5.96047 5.64495C5.91399 5.59809 5.85869 5.56089 5.79776 5.53551C5.73683 5.51012 5.67147 5.49705 5.60547 5.49705C5.53946 5.49705 5.47411 5.51012 5.41318 5.53551C5.35225 5.56089 5.29695 5.59809 5.25047 5.64495L3.75047 7.14495C3.65632 7.23911 3.60342 7.3668 3.60342 7.49995C3.60342 7.6331 3.65632 7.7608 3.75047 7.85495C3.84462 7.94911 3.97232 8.002 4.10547 8.002C4.23862 8.002 4.36632 7.94911 4.46047 7.85495L5.10547 7.20495V10.5C5.10547 10.6326 5.15815 10.7597 5.25192 10.8535C5.34568 10.9473 5.47286 11 5.60547 11C5.73808 11 5.86525 10.9473 5.95902 10.8535C6.05279 10.7597 6.10547 10.6326 6.10547 10.5V7.20495L6.75047 7.85495C6.79695 7.90182 6.85225 7.93902 6.91318 7.9644C6.97411 7.98978 7.03946 8.00285 7.10547 8.00285C7.17147 8.00285 7.23683 7.98978 7.29776 7.9644C7.35869 7.93902 7.41399 7.90182 7.46047 7.85495C7.50733 7.80847 7.54453 7.75317 7.56991 7.69224C7.5953 7.63131 7.60837 7.56596 7.60837 7.49995C7.60837 7.43395 7.5953 7.3686 7.56991 7.30767C7.54453 7.24674 7.50733 7.19144 7.46047 7.14495Z" fill="#F2B50F"/>
</svg>
