<svg width="26" height="26" viewBox="0 0 26 26" fill="none" xmlns="http://www.w3.org/2000/svg">
<g clip-path="url(#clip0_175_364)">
<path d="M0.8125 6.78497H14.0417C14.4066 8.25936 15.7403 9.35588 17.3259 9.35588C18.9114 9.35588 20.2451 8.25936 20.61 6.78497H25.1875C25.6362 6.78497 26 6.42118 26 5.97247C26 5.52377 25.6362 5.15997 25.1875 5.15997H20.61C20.2451 3.68559 18.9114 2.58902 17.3258 2.58902C15.7402 2.58902 14.4065 3.68559 14.0416 5.15997H0.8125C0.363797 5.15997 0 5.52377 0 5.97247C0 6.42118 0.363797 6.78497 0.8125 6.78497ZM17.3259 4.21402C18.2955 4.21402 19.0843 5.00286 19.0843 5.97242C19.0843 6.94204 18.2955 7.73088 17.3259 7.73088C16.3562 7.73088 15.5674 6.94204 15.5674 5.97242C15.5674 5.00286 16.3562 4.21402 17.3259 4.21402ZM0.8125 13.8125H5.39002C5.75494 15.2869 7.08861 16.3834 8.6742 16.3834C10.2598 16.3834 11.5935 15.2869 11.9584 13.8125H25.1875C25.6362 13.8125 26 13.4487 26 13C26 12.5513 25.6362 12.1875 25.1875 12.1875H11.9583C11.5934 10.7131 10.2597 9.61654 8.67415 9.61654C7.08855 9.61654 5.75489 10.7131 5.38997 12.1875H0.8125C0.363797 12.1875 0 12.5513 0 13C0 13.4487 0.363746 13.8125 0.8125 13.8125ZM8.67415 11.2415C9.64377 11.2415 10.4326 12.0304 10.4326 13C10.4326 13.9696 9.64377 14.7584 8.67415 14.7584C7.70453 14.7584 6.9157 13.9696 6.9157 13C6.9157 12.0304 7.70453 11.2415 8.67415 11.2415ZM25.1875 19.215H20.61C20.2451 17.7406 18.9114 16.6441 17.3258 16.6441C15.7402 16.6441 14.4065 17.7406 14.0416 19.215H0.8125C0.363797 19.215 0 19.5788 0 20.0275C0 20.4762 0.363797 20.84 0.8125 20.84H14.0417C14.4066 22.3144 15.7403 23.411 17.3259 23.411C18.9114 23.411 20.2451 22.3144 20.61 20.84H25.1875C25.6362 20.84 26 20.4762 26 20.0275C26 19.5788 25.6363 19.215 25.1875 19.215ZM17.3259 21.786C16.3562 21.786 15.5674 20.9971 15.5674 20.0275C15.5674 19.0579 16.3562 18.2691 17.3259 18.2691C18.2955 18.2691 19.0843 19.0579 19.0843 20.0275C19.0843 20.9971 18.2955 21.786 17.3259 21.786Z" fill="white"/>
</g>
<defs>
<clipPath id="clip0_175_364">
<rect width="26" height="26" fill="white"/>
</clipPath>
</defs>
</svg>
