<svg width="14" height="15" viewBox="0 0 14 15" fill="none" xmlns="http://www.w3.org/2000/svg">
<g clip-path="url(#clip0_209_869)">
<path d="M5.20312 13.8788C4.30595 13.6029 3.4768 13.1415 2.76949 12.5244C2.06218 11.9074 1.49252 11.1485 1.09746 10.2971H3.16459C3.56706 11.8498 4.29342 13.1215 5.20312 13.8788Z" fill="#F2B50F"/>
<path d="M3.64992 10.2971H6.91016V14.1527C5.46459 14.0003 4.23099 12.4618 3.64992 10.2971Z" fill="#F2B50F"/>
<path d="M7.38721 14.1527V10.2971H10.6475C10.0664 12.4618 8.83278 14.0003 7.38721 14.1527Z" fill="#F2B50F"/>
<path d="M11.1321 10.2971H13.1992C12.8042 11.1485 12.2345 11.9074 11.5272 12.5244C10.8199 13.1415 9.99073 13.6029 9.09355 13.8788C10.0033 13.1215 10.7296 11.8498 11.1321 10.2971Z" fill="#F2B50F"/>
<path d="M11.2445 5.18164H13.3997C13.9514 6.6788 13.9514 8.3236 13.3997 9.82076H11.2421C11.5557 8.29037 11.5565 6.71235 11.2445 5.18164Z" fill="#F2B50F"/>
<path d="M9.09593 1.1236C9.99259 1.39993 10.8212 1.86156 11.5281 2.47858C12.2349 3.0956 12.8043 3.85424 13.1992 4.70535H11.1321C10.732 3.15263 10.0057 1.88328 9.09593 1.1236Z" fill="#F2B50F"/>
<path d="M10.7617 9.82076H7.3871V5.18164H10.7617C11.0834 6.71128 11.0834 8.29112 10.7617 9.82076Z" fill="#F2B50F"/>
<path d="M10.6475 4.70529H7.38721V0.84729C8.83278 1.00207 10.0664 2.5405 10.6475 4.70529Z" fill="#F2B50F"/>
<path d="M3.29268 7.5012C3.29069 6.72156 3.37213 5.94395 3.5356 5.18164H6.91016V9.82076H3.5356C3.37238 9.05841 3.29094 8.28082 3.29268 7.5012Z" fill="#F2B50F"/>
<path d="M3.05233 5.18164C2.74027 6.71235 2.74108 8.29037 3.05469 9.82076H0.897077C0.341383 8.32431 0.341383 6.67809 0.897077 5.18164H3.05233Z" fill="#F2B50F"/>
<path d="M3.16404 4.70535H1.0969C1.49185 3.85425 2.0612 3.09561 2.76807 2.47859C3.47493 1.86157 4.30353 1.39994 5.2002 1.1236C4.29047 1.88328 3.56413 3.15263 3.16404 4.70535Z" fill="#F2B50F"/>
<path d="M6.91016 0.84729V4.70529H3.64992C4.23099 2.5405 5.46459 1.00207 6.91016 0.84729Z" fill="#F2B50F"/>
</g>
<defs>
<clipPath id="clip0_209_869">
<rect width="14" height="14" fill="white" transform="matrix(-1 0 0 1 14 0.5)"/>
</clipPath>
</defs>
</svg>
