<svg width="14" height="14" viewBox="0 0 14 14" fill="none" xmlns="http://www.w3.org/2000/svg">
<path d="M7 0.4375C4.34637 0.4375 2.1875 2.59637 2.1875 5.25C2.1875 10.1685 6.55951 13.348 6.74579 13.4811C6.82184 13.5354 6.91092 13.5625 7 13.5625C7.08908 13.5625 7.17816 13.5354 7.25421 13.4811C7.44049 13.348 11.8125 10.1685 11.8125 5.25C11.8125 2.59637 9.65363 0.4375 7 0.4375ZM7 7.4375C5.79367 7.4375 4.8125 6.45633 4.8125 5.25C4.8125 4.04367 5.79367 3.0625 7 3.0625C8.20633 3.0625 9.1875 4.04367 9.1875 5.25C9.1875 6.45633 8.20633 7.4375 7 7.4375Z" fill="#F2B50F"/>
</svg>
