<svg width="14" height="15" viewBox="0 0 14 15" fill="none" xmlns="http://www.w3.org/2000/svg">
<g clip-path="url(#clip0_209_840)">
<path d="M0.11913 3.38977L4.25586 7.49986L0.11913 11.6099C0.0443497 11.4536 -0.00101948 11.2809 -0.00101948 11.0963V3.90338C-0.00101948 3.71884 0.0443497 3.54607 0.11913 3.38977Z" fill="#F1B310"/>
<path d="M1.19718 2.70468H12.4395C12.6241 2.70468 12.7968 2.75005 12.9531 2.82483L7.66595 8.08537C7.19846 8.55286 6.43824 8.55286 5.97075 8.08537L0.683574 2.82483C0.839874 2.75005 1.01264 2.70468 1.19718 2.70468Z" fill="#F1B310"/>
<path d="M13.5195 3.38989C13.5943 3.54619 13.6396 3.71896 13.6396 3.9035V11.0965C13.6396 11.281 13.5943 11.4538 13.5195 11.6101L9.38277 7.49998L13.5195 3.38989Z" fill="#F1B310"/>
<path d="M5.13671 8L5.72208 8.58537C6.50103 9.36432 7.76851 9.36432 8.54745 8.58537L9.1328 8L13.2695 12.1101C13.1132 12.1849 12.9405 12.2302 12.7559 12.2302H1.51358C1.32905 12.2302 1.15628 12.1849 0.99998 12.1101L5.13671 8Z" fill="#F1B310"/>
</g>
<defs>
<clipPath id="clip0_209_840">
<rect width="13.64" height="13.64" fill="white" transform="matrix(-1 0 0 1 13.6396 0.679993)"/>
</clipPath>
</defs>
</svg>
