<svg width="16" height="17" viewBox="0 0 16 17" fill="none" xmlns="http://www.w3.org/2000/svg">
<g clip-path="url(#clip0_129_100)">
<path d="M11.2348 9.31594C11.0781 9.30305 10.9227 9.35283 10.8027 9.45435C10.6826 9.55587 10.6078 9.70086 10.5945 9.85751C10.542 10.4769 10.477 11.0156 10.4201 11.2988V11.3022C10.2523 12.1678 9.43228 13.0234 8.59134 13.2116C8.51853 13.2266 8.4454 13.2409 8.37259 13.2547C8.43509 12.4506 8.48165 11.4225 8.4754 10.6297C8.48478 9.41844 8.36884 7.55344 8.26603 6.81126C8.08134 5.44469 7.24103 3.92907 6.31134 3.28501L6.30571 3.28126C5.65931 2.84457 4.96655 2.48079 4.24009 2.19657C4.11051 2.14636 3.98249 2.09948 3.85603 2.05594C4.54565 1.94932 5.24259 1.89708 5.9404 1.89969C6.8904 1.89969 7.75759 1.98626 8.59134 2.15938C9.43228 2.34688 10.2523 3.20313 10.4201 4.06876V4.07219C10.4767 4.35344 10.5417 4.89219 10.5942 5.50969C10.6075 5.66663 10.6826 5.81183 10.803 5.91337C10.9234 6.0149 11.0792 6.06444 11.2362 6.0511C11.3931 6.03776 11.5383 5.96262 11.6399 5.84221C11.7414 5.72181 11.7909 5.566 11.7776 5.40907C11.7207 4.74063 11.6507 4.16907 11.5851 3.84032C11.326 2.50876 10.1476 1.28719 8.84384 0.998443L8.83634 0.99688C7.92009 0.80688 6.97321 0.713755 5.93821 0.71188C4.90321 0.710005 3.96009 0.80563 3.04384 0.997193L3.03603 0.998755C2.45415 1.12782 1.89759 1.44282 1.43634 1.87001C1.31168 1.964 1.20272 2.07718 1.11353 2.20532C0.706027 2.68094 0.410089 3.25001 0.295089 3.84032C0.151027 4.56251 -0.0117858 6.43532 0.000714241 7.68532C-0.00616076 8.35594 0.0372767 9.20594 0.101652 9.96126C0.136027 10.4456 0.175089 10.8675 0.212589 11.1381C0.397277 12.5047 1.23759 14.0203 2.16759 14.6644L2.1729 14.6681C2.81946 15.1047 3.51231 15.4685 4.23884 15.7528C4.97446 16.0384 5.64946 16.2116 6.3029 16.2822H6.30853C7.18665 16.3606 7.98478 15.5984 8.22634 14.4841C8.43071 14.4516 8.63332 14.4146 8.83415 14.3731L8.84165 14.3716C10.1457 14.0828 11.3238 12.8613 11.5829 11.5297C11.6485 11.2003 11.7188 10.6275 11.7757 9.95751C11.789 9.80072 11.7394 9.64508 11.638 9.52479C11.5366 9.4045 11.3915 9.32938 11.2348 9.31594Z"/>
<path d="M16.0047 7.68438C16.0047 7.6647 16.0047 7.64501 16.0016 7.62532C16.0017 7.62408 16.0017 7.62282 16.0016 7.62157C15.9997 7.60311 15.9969 7.58475 15.9931 7.56657V7.56251C15.9697 7.44966 15.9137 7.34614 15.8322 7.2647L13.7072 5.13782C13.5958 5.02643 13.4448 4.96384 13.2873 4.96381C13.1298 4.96378 12.9787 5.02632 12.8673 5.13767C12.756 5.24901 12.6934 5.40005 12.6933 5.55755C12.6933 5.71506 12.7558 5.86612 12.8672 5.97751L13.9819 7.09188H9.88281C9.72534 7.09188 9.57432 7.15444 9.46297 7.26579C9.35162 7.37714 9.28906 7.52816 9.28906 7.68563C9.28906 7.84311 9.35162 7.99413 9.46297 8.10548C9.57432 8.21683 9.72534 8.27938 9.88281 8.27938H13.9766L12.8628 9.39313C12.7518 9.50456 12.6896 9.65546 12.6898 9.81272C12.6899 9.96998 12.7525 10.1208 12.8637 10.232C12.9749 10.3432 13.1257 10.4057 13.2829 10.4059C13.4402 10.406 13.5911 10.3438 13.7025 10.2328L15.8178 8.11751C15.8945 8.04566 15.9506 7.95459 15.9803 7.85376C15.9857 7.83578 15.9901 7.81753 15.9934 7.79907C15.9936 7.79647 15.9936 7.79386 15.9934 7.79126C15.9963 7.77532 15.9991 7.76001 16.0006 7.74313C16.0022 7.72626 16.0006 7.71876 16.0006 7.70688C16.0006 7.70001 16.0006 7.69313 16.0006 7.68626L16.0047 7.68438Z"/>
</g>
<defs>
<clipPath id="clip0_129_100">
<rect width="16" height="16" fill="white" transform="translate(0 0.5)"/>
</clipPath>
</defs>
</svg>
