<svg width="14" height="15" viewBox="0 0 14 15" fill="none" xmlns="http://www.w3.org/2000/svg">
<g clip-path="url(#clip0_209_834)">
<path d="M13.2691 10.6904L11.3656 8.78688C10.6858 8.10706 9.53007 8.37902 9.25814 9.26276C9.05419 9.87463 8.37437 10.2145 7.76253 10.0785C6.40288 9.73864 4.56736 7.9711 4.22745 6.54347C4.0235 5.9316 4.4314 5.25178 5.04324 5.04786C5.92701 4.77593 6.19894 3.62023 5.51911 2.9404L3.61561 1.0369C3.07175 0.561024 2.25596 0.561024 1.78009 1.0369L0.488422 2.32856C-0.803242 3.68821 0.624387 7.29127 3.81956 10.4864C7.01472 13.6816 10.6178 15.1772 11.9774 13.8176L13.2691 12.5259C13.745 11.9821 13.745 11.1663 13.2691 10.6904Z" fill="#F1B310"/>
</g>
<defs>
<clipPath id="clip0_209_834">
<rect width="13.64" height="13.64" fill="white" transform="translate(0 0.679993)"/>
</clipPath>
</defs>
</svg>
