<svg width="20" height="20" viewBox="0 0 20 20" fill="none" xmlns="http://www.w3.org/2000/svg">
<path d="M18.2809 6.12501V15.7375C18.2809 16.3625 17.7684 16.875 17.1434 16.875C16.5184 16.875 16.0059 16.3625 16.0059 15.7375V5.63126H17.7934C18.0621 5.63126 18.2809 5.85626 18.2809 6.12501Z"/>
<path d="M18.2809 6.12501V15.7375C18.2809 16.3625 17.7684 16.875 17.1434 16.875C16.5184 16.875 16.0059 16.3625 16.0059 15.7375V5.63126H17.7934C18.0621 5.63126 18.2809 5.85626 18.2809 6.12501Z"/>
<path d="M15.0687 15.7375V3.6125C15.0687 3.34375 14.85 3.125 14.5812 3.125H2.20625C1.9375 3.125 1.71875 3.34375 1.71875 3.6125V15.0188C1.71875 16.0438 2.55 16.875 3.575 16.875H15.4062C15.1937 16.55 15.0687 16.1562 15.0687 15.7375ZM9.11875 5.4625H12.8875C13.1981 5.4625 13.45 5.71438 13.45 6.025C13.45 6.33563 13.1981 6.5875 12.8875 6.5875H9.11875C8.80812 6.5875 8.55625 6.33563 8.55625 6.025C8.55625 5.71438 8.80812 5.4625 9.11875 5.4625ZM9.11875 8.1125H12.8875C13.1981 8.1125 13.45 8.36438 13.45 8.675C13.45 8.98563 13.1981 9.2375 12.8875 9.2375H9.11875C8.80812 9.2375 8.55625 8.98563 8.55625 8.675C8.55625 8.36438 8.80812 8.1125 9.11875 8.1125ZM3.89625 6.35625C3.89625 6.17188 4.04562 6.0225 4.23 6.0225H6.60062C6.785 6.0225 6.93437 6.17188 6.93437 6.35625V8.34125C6.93437 8.52562 6.785 8.675 6.60062 8.675H4.23C4.04562 8.675 3.89625 8.52562 3.89625 8.34125V6.35625ZM12.8906 14.54H3.89562C3.585 14.54 3.33312 14.2881 3.33312 13.9775C3.33312 13.6669 3.585 13.415 3.89562 13.415H12.8906C13.2012 13.415 13.4531 13.6669 13.4531 13.9775C13.4531 14.2881 13.2012 14.54 12.8906 14.54ZM12.8906 11.8881H3.89562C3.585 11.8881 3.33312 11.6363 3.33312 11.3256C3.33312 11.015 3.585 10.7631 3.89562 10.7631H12.8906C13.2012 10.7631 13.4531 11.015 13.4531 11.3256C13.4531 11.6363 13.2012 11.8881 12.8906 11.8881Z"/>
</svg>
