<svg width="18" height="18" viewBox="0 0 18 18" fill="none" xmlns="http://www.w3.org/2000/svg">
<g clip-path="url(#clip0_123_98)">
<path d="M17.375 3.42079V6.44888C17.375 7.03568 16.8993 7.51138 16.3125 7.51138H13.2844C12.6976 7.51138 12.2219 7.03568 12.2219 6.44888C12.2219 5.86208 12.6976 5.38638 13.2844 5.38638H14.0962C12.923 3.7048 11.0002 2.677 8.875 2.677C6.23074 2.677 3.89958 4.26786 2.93609 6.72988C2.7222 7.27633 2.10581 7.54591 1.55942 7.33208C1.01296 7.11822 0.743355 6.50187 0.957217 5.95545C1.57343 4.38085 2.63554 3.03669 4.02871 2.06826C5.45568 1.07631 7.13147 0.552002 8.875 0.552002C10.6185 0.552002 12.2943 1.07631 13.7213 2.06822C14.2883 2.46234 14.8004 2.91875 15.25 3.42756V3.42082C15.25 2.83402 15.7257 2.35832 16.3125 2.35832C16.8993 2.35832 17.375 2.83399 17.375 3.42079ZM16.1906 10.772C15.6442 10.5581 15.0278 10.8277 14.8139 11.3742C13.8504 13.8362 11.5193 15.427 8.875 15.427C6.79492 15.427 4.90875 14.4424 3.72951 12.8239H4.46559C5.05239 12.8239 5.52809 12.3482 5.52809 11.7614C5.52809 11.1746 5.05239 10.6989 4.46559 10.6989H1.4375C0.850701 10.6989 0.375 11.1746 0.375 11.7614V14.7895C0.375 15.3763 0.850701 15.852 1.4375 15.852C2.0243 15.852 2.5 15.3763 2.5 14.7895V14.6765C2.94957 15.1853 3.46173 15.6417 4.02871 16.0358C5.45568 17.0277 7.13147 17.552 8.875 17.552C10.6185 17.552 12.2943 17.0277 13.7213 16.0358C15.1145 15.0673 16.1766 13.7232 16.7928 12.1486C17.0066 11.6022 16.737 10.9858 16.1906 10.772Z"/>
</g>
<defs>
<clipPath id="clip0_123_98">
<rect width="17" height="17" fill="white" transform="translate(0.375 0.552002)"/>
</clipPath>
</defs>
</svg>
