<svg width="16" height="16" viewBox="0 0 16 16" fill="none" xmlns="http://www.w3.org/2000/svg">
<g clip-path="url(#clip0_2001_449)">
<path d="M14.4617 15.2229C13.36 15.5611 11.2892 16 7.99787 16C4.71108 16 2.63568 15.5611 1.534 15.2229C0.944282 15.0446 0.551154 14.4686 0.642587 13.8606C1.03571 11.2367 2.62656 9.04245 4.78879 7.93159C5.63905 8.6996 6.76361 9.16585 7.99787 9.16585C9.22753 9.16585 10.3567 8.6996 11.2069 7.93159C13.3737 9.04245 14.9646 11.2367 15.3577 13.8606C15.4491 14.4686 15.0514 15.0446 14.4617 15.2229ZM7.99863 0C5.59398 0 3.64462 1.94935 3.64462 4.354C3.64462 6.75865 5.59398 8.70801 7.99863 8.70801C10.4033 8.70801 12.3526 6.75865 12.3526 4.354C12.3526 1.94935 10.4033 0 7.99863 0Z" fill="#F2B50F"/>
</g>
<defs>
<clipPath id="clip0_2001_449">
<rect width="16" height="16" fill="white"/>
</clipPath>
</defs>
</svg>
