<svg width="15" height="17" viewBox="0 0 15 17" fill="none" xmlns="http://www.w3.org/2000/svg">
<path d="M13.8323 15.7229C12.7306 16.0611 10.6598 16.5 7.36848 16.5C4.08169 16.5 2.00629 16.0611 0.904607 15.7229C0.314887 15.5446 -0.0782405 14.9686 0.013192 14.3606C0.40632 11.7367 1.99716 9.54245 4.15939 8.43159C5.00965 9.1996 6.13421 9.66585 7.36848 9.66585C8.59814 9.66585 9.72727 9.1996 10.5775 8.43159C12.7443 9.54245 14.3352 11.7367 14.7283 14.3606C14.8197 14.9686 14.422 15.5446 13.8323 15.7229ZM7.36923 0.5C4.96458 0.5 3.01523 2.44935 3.01523 4.854C3.01523 7.25865 4.96458 9.20801 7.36923 9.20801C9.77388 9.20801 11.7232 7.25865 11.7232 4.854C11.7232 2.44935 9.77388 0.5 7.36923 0.5Z"/>
</svg>
