<svg width="16" height="17" viewBox="0 0 16 17" fill="none" xmlns="http://www.w3.org/2000/svg">
<path fill-rule="evenodd" clip-rule="evenodd" d="M11.834 3.03266C11.834 2.74133 11.656 2.47933 11.3847 2.372C11.1133 2.26466 10.804 2.334 10.6047 2.54666C9.33665 3.89933 7.56532 4.66666 5.71198 4.66666C4.90732 4.66666 4.06398 4.66666 3.33398 4.66666C2.67065 4.66666 2.03532 4.93 1.56598 5.39866C1.09732 5.868 0.833984 6.50333 0.833984 7.16666V7.83333C0.833984 8.49666 1.09732 9.132 1.56598 9.60133C2.03532 10.07 2.67065 10.3333 3.33398 10.3333H5.71198C7.56532 10.3333 9.33665 11.1007 10.6047 12.4533C10.804 12.666 11.1133 12.7353 11.3847 12.628C11.656 12.5207 11.834 12.2587 11.834 11.9673C11.834 10.234 11.834 4.766 11.834 3.03266Z"/>
<path fill-rule="evenodd" clip-rule="evenodd" d="M14.666 7H13.666C13.39 7 13.166 7.224 13.166 7.5C13.166 7.776 13.39 8 13.666 8H14.666C14.942 8 15.166 7.776 15.166 7.5C15.166 7.224 14.942 7 14.666 7Z"/>
<path fill-rule="evenodd" clip-rule="evenodd" d="M12.7944 10.1667L13.5018 10.874C13.6971 11.0687 14.0138 11.0687 14.2091 10.874C14.4038 10.6787 14.4038 10.362 14.2091 10.1667L13.5018 9.45933C13.3064 9.26466 12.9898 9.26466 12.7944 9.45933C12.5998 9.65466 12.5998 9.97133 12.7944 10.1667Z"/>
<path fill-rule="evenodd" clip-rule="evenodd" d="M13.5018 5.54066L14.2091 4.83333C14.4038 4.638 14.4038 4.32133 14.2091 4.126C14.0138 3.93133 13.6971 3.93133 13.5018 4.126L12.7944 4.83333C12.5998 5.02866 12.5998 5.34533 12.7944 5.54066C12.9898 5.73533 13.3064 5.73533 13.5018 5.54066Z"/>
<path fill-rule="evenodd" clip-rule="evenodd" d="M2.96484 10.9787L3.41551 13.7013C3.50818 14.2647 3.99551 14.678 4.56618 14.678H6.12818C6.41684 14.678 6.68551 14.5287 6.83684 14.2827C6.98884 14.0373 7.00284 13.73 6.87351 13.472L6.48151 12.6873C6.47551 12.676 6.47151 12.6647 6.46818 12.6527L6.06284 11.01C5.94618 11.0033 3.08684 10.9927 2.96484 10.9787Z"/>
</svg>
